<svg width="120" height="38" viewBox="0 0 120 38" fill="none" xmlns="http://www.w3.org/2000/svg">
<path d="M33.3588 11.5511H27.1774C25.6451 11.5511 25.4495 11.3478 25.4495 9.75575V3.33321C25.4495 1.49724 24.0085 0 22.2479 0H14.319C12.5519 0 11.1174 1.49724 11.1174 3.33321V12.757C11.1566 13.5497 11.463 14.2678 11.9455 14.8233L21.8763 25.1414C22.2544 25.5275 22.2284 26.0424 22.2284 26.0424V32.8511C22.2284 34.4432 22.0393 34.6465 20.5069 34.6465H16.0665C14.5342 34.6465 14.3386 34.4432 14.3386 32.8511V26.4218C14.3386 24.5858 12.9041 23.0954 11.1305 23.0954H4.94905C3.41674 23.0954 3.22112 22.8921 3.22112 21.3001V16.6864C3.22112 15.0469 3.34501 14.8978 4.71432 14.8978H6.42269C7.31599 14.8978 8.03325 14.1458 8.03325 13.2245C8.03325 12.3031 7.30947 11.5579 6.42269 11.5579H3.20808C1.44103 11.5579 0 13.0483 0 14.8843V23.1225C0 24.9585 1.43451 26.4489 3.20808 26.4489H9.38951C10.9218 26.4489 11.1109 26.6522 11.1109 28.2442V34.6668C11.1109 36.5028 12.5519 38 14.3125 38H22.2414C24.0019 38 25.443 36.5028 25.443 34.6668V25.4733C25.4299 24.6265 25.306 24.0032 24.6083 23.2851L14.6776 12.9602C14.4625 12.7231 14.332 12.3979 14.332 12.0456V5.25049C14.332 4.45784 14.2864 4.092 14.5994 3.73293C14.9319 3.36031 15.2971 3.34676 16.0535 3.34676H20.4939C21.3546 3.34676 21.6546 3.42806 21.9284 3.71938C22.2414 4.05135 22.2153 4.52558 22.2153 5.24372V11.5579C22.2153 13.3938 23.6498 14.8911 25.4234 14.8911H31.6048C33.1371 14.8911 33.3328 15.0875 33.3328 16.6796V21.2933C33.3328 22.8854 33.1958 23.0683 31.9961 23.0886C31.9961 23.0886 31.983 23.0886 31.97 23.0886H30.1182C29.277 23.0886 28.5728 23.7729 28.5141 24.6468C28.5076 24.6875 28.5076 24.8772 28.5141 24.9314C28.5924 25.7918 29.2835 26.4421 30.1116 26.4421H33.3328C35.0998 26.4421 36.5408 24.9517 36.5408 23.1157V14.8775C36.5408 13.0415 35.1063 11.5511 33.3328 11.5511" fill="#36AD55"/>
<path d="M50.2144 17.7089C47.7366 17.0517 47.1236 16.7333 47.1236 15.7577V15.7171C47.1236 14.9921 47.7561 14.4163 48.9624 14.4163C49.1776 14.4163 49.3863 14.4366 49.6014 14.4705C49.6666 14.4773 49.7188 14.4908 49.7775 14.5044C50.4882 14.6466 51.1533 14.9515 51.6293 15.2089C51.6815 15.2428 52.164 15.5341 52.164 15.5341L52.3596 15.6358C52.6074 15.7509 52.7965 15.69 52.9595 15.4664L54.068 13.8066V13.793C54.1267 13.7117 54.1527 13.6236 54.1527 13.5152C54.1527 13.3662 54.1071 13.2578 54.0093 13.1629C53.9897 13.1426 53.9376 13.1087 53.918 13.0884C53.8332 13.0274 53.7485 12.9665 53.6637 12.9123C53.6637 12.9123 53.6507 12.9055 53.6507 12.8987C53.5724 12.8445 53.4876 12.7903 53.4029 12.7361C53.3898 12.7226 53.3703 12.7158 53.3572 12.709C53.2855 12.6684 53.2073 12.621 53.1355 12.5803C53.0964 12.56 53.0638 12.5397 53.0312 12.5193C52.9725 12.4855 52.9204 12.4584 52.8552 12.4313C51.7271 11.8419 50.4426 11.5234 49.0211 11.5234C46.0934 11.5234 44.0068 13.312 44.0068 16.0084V16.049C44.0068 19.0028 45.8717 19.8361 48.7538 20.6017C51.1468 21.2385 51.6423 21.6654 51.6423 22.4919V22.5393C51.6423 23.4065 50.8664 23.9417 49.5753 23.9417C48.9755 23.9417 48.4082 23.8468 47.8735 23.6707C47.8344 23.6572 47.7887 23.6436 47.7496 23.6301C47.7301 23.6233 47.7105 23.6165 47.6974 23.6097C47.4366 23.5149 47.1954 23.4065 46.9802 23.2913C46.915 23.2574 46.8563 23.2236 46.7976 23.1965C46.4325 22.9932 46.126 22.79 45.7804 22.519C45.7348 22.4851 45.6565 22.4241 45.65 22.4174C45.4348 22.2751 45.1805 22.3022 44.998 22.519L43.8047 24.0094C43.7721 24.0501 43.7591 24.0772 43.7395 24.1111C43.6873 24.1924 43.6482 24.2872 43.6482 24.3888C43.6482 24.5311 43.6808 24.6192 43.7721 24.714C43.8112 24.7547 43.8438 24.7818 43.9156 24.8563C45.5587 26.1842 47.5475 26.8413 49.5297 26.8413C52.6204 26.8413 54.7852 25.1815 54.7852 22.2277V22.187C54.7852 19.5923 53.1551 18.5083 50.247 17.7224" fill="#36AD55"/>
<path d="M85.6793 11.5156H83.5276C83.2602 11.5156 83.045 11.7392 83.045 12.017V20.1874C83.045 20.3161 83.0516 20.411 82.9668 20.4381C82.8885 20.4652 82.8103 20.3771 82.7581 20.289L76.6224 11.9153C76.4593 11.6985 76.2637 11.5156 75.8464 11.5156H73.9033C73.636 11.5156 73.4208 11.7392 73.4208 12.017V25.9121C73.4208 26.1899 73.6034 26.4135 73.9033 26.4135H76.0551C76.3615 26.4135 76.5376 26.1899 76.5376 25.9121V17.4436C76.5376 17.3691 76.5376 17.3217 76.5506 17.281C76.5832 17.1997 76.6876 17.1862 76.7593 17.2539C76.7854 17.281 76.7984 17.3013 76.831 17.342C76.831 17.342 82.9864 25.736 83.1885 26.0138C83.4037 26.3118 83.6449 26.4135 83.9644 26.4135H85.6793C85.9793 26.3864 86.1618 26.2102 86.1618 25.9121V12.017C86.1618 11.7392 85.9467 11.5156 85.6793 11.5156Z" fill="#36AD55"/>
<path d="M101.831 11.5156H99.6853C99.418 11.5156 99.1963 11.7392 99.1963 12.017V20.1874C99.1963 20.3161 99.2028 20.411 99.1115 20.4381C99.0333 20.4652 98.9616 20.3771 98.9029 20.289L92.7736 11.9153C92.6106 11.6985 92.415 11.5156 91.9977 11.5156H90.0546C89.7872 11.5156 89.5721 11.7392 89.5721 12.017V25.9121C89.5721 26.1899 89.7546 26.4135 90.0546 26.4135H92.2063C92.5128 26.4135 92.6888 26.1899 92.6888 25.9121V17.4436C92.6888 17.3691 92.6888 17.3217 92.7019 17.281C92.7345 17.1997 92.8388 17.1862 92.9106 17.2539C92.9366 17.281 92.9497 17.3013 92.9757 17.342C92.9757 17.342 99.1311 25.736 99.3332 26.0138C99.5419 26.3118 99.7897 26.4135 100.109 26.4135H101.831C102.131 26.3864 102.313 26.2102 102.313 25.9121V12.017C102.313 11.7392 102.098 11.5156 101.831 11.5156Z" fill="#36AD55"/>
<path d="M65.3484 20.3229C65.1137 20.4245 64.6051 20.5871 63.627 20.5871C62.6489 20.5871 62.1208 20.4381 61.9056 20.3364C61.8143 20.2958 61.7687 20.1942 61.7882 20.0926L63.5031 15.7431C63.5031 15.7431 63.5031 15.7431 63.5096 15.7228V15.7025C63.5357 15.6618 63.5748 15.6347 63.6205 15.6347C63.6661 15.6347 63.7053 15.6618 63.7248 15.6957L63.7379 15.7228V15.7431L65.4462 20.0587C65.4854 20.1603 65.4397 20.2755 65.3419 20.3229M65.2897 11.9763C65.1854 11.7256 64.9376 11.5156 64.6246 11.5156H62.6946C62.3686 11.5156 62.1273 11.7256 62.023 11.9763L56.2915 25.9596C56.1871 26.2102 56.3175 26.4202 56.5849 26.4202H58.8214C59.0887 26.4202 59.3365 26.3051 59.4865 25.9596L60.4841 23.4054C60.5885 23.148 60.6928 23.1209 60.9471 23.2022C60.9471 23.2022 62.023 23.5477 63.6205 23.5477C65.368 23.5477 66.2743 23.2293 66.2743 23.2293C66.5221 23.1616 66.659 23.148 66.7568 23.4054L67.748 25.9596C67.924 26.3593 68.1457 26.4202 68.413 26.4202H70.7278C70.9952 26.4202 71.1256 26.2102 71.0212 25.9596L65.2897 11.9763Z" fill="#36AD55"/>
<path d="M114.272 20.3229C114.037 20.4245 113.528 20.5871 112.55 20.5871C111.572 20.5871 111.044 20.4381 110.816 20.3364H110.822C110.731 20.2958 110.685 20.1942 110.705 20.0926L112.426 15.7431C112.426 15.7431 112.426 15.7431 112.426 15.7228V15.7025C112.452 15.6618 112.492 15.6347 112.544 15.6347C112.596 15.6347 112.629 15.6618 112.648 15.6957V15.7228L112.661 15.7431L114.363 20.0587C114.409 20.1603 114.363 20.2755 114.259 20.3229M114.226 11.9763C114.122 11.7256 113.874 11.5156 113.561 11.5156H111.637C111.311 11.5156 111.07 11.7256 110.966 11.9763L105.234 25.9596C105.136 26.2102 105.26 26.4202 105.528 26.4202H107.764C108.019 26.4202 108.273 26.3051 108.423 25.9596L109.427 23.4054C109.531 23.148 109.636 23.1209 109.883 23.2022C109.883 23.2022 110.966 23.5477 112.563 23.5477C114.311 23.5477 115.217 23.2293 115.217 23.2293C115.458 23.1616 115.595 23.148 115.7 23.4054L116.697 25.9596C116.873 26.3593 117.095 26.4202 117.356 26.4202H119.671C119.938 26.4202 120.068 26.2102 119.964 25.9596L114.233 11.9763H114.226Z" fill="#36AD55"/>
</svg>
